<svg width="211" height="208" viewBox="0 0 211 208" fill="none" xmlns="http://www.w3.org/2000/svg">
<path d="M160.906 139.869C140.065 170.671 98.2005 178.746 67.3987 157.906C36.5968 137.065 28.5215 95.2006 49.3622 64.3987C70.2028 33.5968 112.067 25.5216 142.869 46.3622C173.671 67.2028 181.746 109.067 160.906 139.869Z" fill="#D3FF24"/>
<path d="M112.354 105.136C113.475 108.926 109.281 112.068 105.958 109.927L94.6812 102.659C89.2687 99.1709 88.9932 91.3554 94.1467 87.4948C99.3002 83.6342 106.723 86.0954 108.549 92.2702L112.354 105.136Z" fill="#D3FF24"/>
<path d="M79.9184 128.473C75.4292 128.987 71.8728 128.481 69.2492 126.954C66.6639 125.423 65.0037 123.145 64.2687 120.119L71.2902 119.315C72.3026 122.387 74.9574 123.677 79.2547 123.185C84.8565 122.544 87.3478 119.518 86.7286 114.108L86.2213 109.676C85.5145 111.312 84.3231 112.79 82.6471 114.109C81.0052 115.385 79.129 116.144 77.0188 116.386C73.1819 116.825 69.848 115.885 67.017 113.566C64.1816 111.208 62.518 107.881 62.0261 103.583L61.9799 103.18C61.4924 98.9215 62.3545 95.2466 64.5663 92.1558C66.8163 89.0607 69.8982 87.2891 73.8118 86.8411C78.1858 86.3404 81.6086 87.7173 84.0802 90.9716L83.5532 86.3674L90.5171 85.5703L93.7056 113.426C94.168 117.804 93.1836 121.26 90.7525 123.793C88.3258 126.364 84.7144 127.924 79.9184 128.473ZM78.1327 110.835C80.5883 110.554 82.489 109.501 83.8349 107.676C85.2192 105.846 85.7488 103.511 85.4238 100.672L85.3777 100.269C85.0483 97.3912 84.0645 95.2493 82.4264 93.8431C80.8223 92.3941 78.7541 91.8145 76.2218 92.1044C73.6511 92.3987 71.7334 93.4734 70.4686 95.3285C69.2378 97.1408 68.7827 99.4475 69.1033 102.248L69.156 102.709C69.4679 105.433 70.4664 107.534 72.1516 109.013C73.8369 110.491 75.8305 111.099 78.1327 110.835ZM115.378 108.321C117.987 108.023 119.92 106.907 121.176 104.976C122.427 103.005 122.875 100.466 122.52 97.3584L122.473 96.9555C122.118 93.8477 121.11 91.4947 119.45 89.8966C117.785 88.2602 115.649 87.5913 113.04 87.89C110.43 88.1886 108.479 89.3061 107.184 91.2423C105.928 93.1742 105.478 95.694 105.834 98.8019L105.887 99.2623C106.243 102.37 107.253 104.742 108.917 106.379C110.577 107.977 112.731 108.624 115.378 108.321ZM126.56 108.207C123.969 111.381 120.429 113.224 115.94 113.738C111.451 114.252 107.588 113.275 104.351 110.808C101.149 108.298 99.286 104.76 98.7634 100.194L98.7107 99.7339C98.1836 95.1297 99.2134 91.2218 101.8 88.0104C104.387 84.799 107.925 82.9363 112.414 82.4224C116.864 81.913 120.71 82.911 123.951 85.4165C127.192 87.922 129.074 91.4577 129.597 96.0235L129.65 96.4839C130.181 101.127 129.151 105.034 126.56 108.207ZM142.242 110.552C140.976 110.697 139.834 110.4 138.817 109.662C137.833 108.88 137.271 107.875 137.131 106.648C136.986 105.381 137.306 104.276 138.092 103.331C138.912 102.343 139.955 101.776 141.221 101.631C142.526 101.482 143.67 101.798 144.653 102.58C145.671 103.318 146.252 104.321 146.397 105.587C146.537 106.815 146.198 107.923 145.378 108.911C144.592 109.856 143.547 110.403 142.242 110.552ZM133.687 69.4337L141.457 68.5444L143.657 97.446L138.017 98.0917L133.687 69.4337Z" fill="#353535"/>
<path d="M158.623 168.219C159.938 172.666 155.017 176.352 151.12 173.84L130.345 160.452L151.614 144.519L158.623 168.219Z" fill="#D3FF24"/>
</svg>
