<svg width="99" height="99" viewBox="0 0 99 99" fill="none" xmlns="http://www.w3.org/2000/svg">
<circle cx="49.3027" cy="49.3027" r="49.3027" fill="#FDB1AD"/>
<path d="M85.8489 59.1483L91.0193 67.3642H80.8933L79.0676 64.4357C78.0857 65.4526 76.935 66.3067 75.6309 67.0388C74.3575 67.7099 72.7005 68.0557 70.6753 68.0557C69.0183 68.0557 67.5148 67.7912 66.1493 67.2625C64.8145 66.6931 63.6791 65.9 62.7586 64.8425C61.8074 63.785 61.0709 62.5241 60.5493 61.0192C60.0276 59.5143 59.7668 57.8061 59.7668 55.8944C59.7668 53.3117 60.3498 51.0544 61.5005 49.1427C62.6819 47.1904 64.3849 45.5432 66.5789 44.201C65.9192 42.9604 65.4128 41.7199 65.106 40.4794C64.8145 39.2389 64.6764 38.1407 64.6764 37.1646C64.6764 35.436 64.9372 33.9311 65.4589 32.6092C65.9805 31.2873 66.7016 30.1892 67.6375 29.2943C68.5427 28.4199 69.586 27.7691 70.8133 27.3217C72.0254 26.8743 73.3142 26.6506 74.6797 26.6506C75.9224 26.6506 77.1191 26.854 78.2391 27.2607C79.3744 27.6268 80.3717 28.2165 81.2309 29.0096C82.1054 29.8028 82.7958 30.7992 83.3174 31.9991C83.839 33.1583 84.0999 34.5005 84.0999 36.0461C84.0999 38.1814 83.5783 40.093 82.535 41.7809C81.5224 43.4282 79.9728 44.8314 77.8862 46.0109L81.7985 52.1932L84.0539 46.4583H90.8352L85.8489 59.1483ZM72.0254 59.6567C72.6391 59.6567 73.1914 59.5143 73.6824 59.2703C74.204 58.9652 74.6643 58.5382 75.0785 57.9688L70.169 50.3223C69.586 50.7697 69.095 51.3391 68.6961 52.0102C68.2972 52.6813 68.0824 53.5557 68.0824 54.6539C68.0824 56.1181 68.4199 57.318 69.0797 58.2535C69.7394 59.1889 70.7213 59.6567 72.0254 59.6567ZM72.3323 37.2662C72.3323 38.0187 72.4857 38.7508 72.8079 39.4626C73.1301 40.1743 73.5596 40.9471 74.112 41.7606C75.1552 41.1302 75.9224 40.3981 76.4133 39.5643C76.935 38.7305 77.1958 37.8357 77.1958 36.8595C77.1958 35.9647 76.981 35.2326 76.5514 34.6632C76.1525 34.0734 75.6002 33.7684 74.8944 33.7684C74.1427 33.7684 73.5136 34.0937 73.0227 34.7242C72.5624 35.3343 72.3323 36.1681 72.3323 37.2662Z" fill="white"/>
</svg>
